<mxfile host="app.diagrams.net" modified="2022-05-20T11:39:16.167Z" agent="5.0 (Macintosh; Intel Mac OS X 10_15_7) AppleWebKit/605.1.15 (KHTML, like Gecko) Version/15.5 Safari/605.1.15" etag="xiG6-WhS1l-pl58BmB6s" version="18.0.8" type="github">
  <diagram id="3wOLqzwA18D3ziB3solg" name="Page-1">
    <mxGraphModel dx="1018" dy="690" grid="1" gridSize="10" guides="1" tooltips="1" connect="1" arrows="1" fold="1" page="1" pageScale="1" pageWidth="827" pageHeight="1169" math="0" shadow="0">
      <root>
        <mxCell id="0" />
        <mxCell id="1" parent="0" />
        <mxCell id="Y5ALovDwi28sZ790nxAF-77" style="edgeStyle=orthogonalEdgeStyle;rounded=0;orthogonalLoop=1;jettySize=auto;html=1;exitX=1;exitY=0.5;exitDx=0;exitDy=0;entryX=0;entryY=0.5;entryDx=0;entryDy=0;fontSize=10;" edge="1" parent="1" source="Y5ALovDwi28sZ790nxAF-71" target="Y5ALovDwi28sZ790nxAF-73">
          <mxGeometry relative="1" as="geometry" />
        </mxCell>
        <mxCell id="Y5ALovDwi28sZ790nxAF-71" value="" style="rounded=1;whiteSpace=wrap;html=1;fontSize=10;fillColor=#d5e8d4;strokeColor=#82b366;" vertex="1" parent="1">
          <mxGeometry x="35" y="440" width="165" height="80" as="geometry" />
        </mxCell>
        <mxCell id="Y5ALovDwi28sZ790nxAF-75" style="edgeStyle=orthogonalEdgeStyle;rounded=0;orthogonalLoop=1;jettySize=auto;html=1;exitX=0;exitY=0.5;exitDx=0;exitDy=0;entryX=0.25;entryY=0;entryDx=0;entryDy=0;fontSize=10;" edge="1" parent="1" source="Y5ALovDwi28sZ790nxAF-70" target="Y5ALovDwi28sZ790nxAF-71">
          <mxGeometry relative="1" as="geometry" />
        </mxCell>
        <mxCell id="Y5ALovDwi28sZ790nxAF-70" value="" style="rounded=1;whiteSpace=wrap;html=1;fontSize=10;fillColor=#ffe6cc;strokeColor=#d79b00;" vertex="1" parent="1">
          <mxGeometry x="125" y="320" width="160" height="80" as="geometry" />
        </mxCell>
        <mxCell id="Y5ALovDwi28sZ790nxAF-1" value="" style="rounded=1;whiteSpace=wrap;html=1;fillColor=#fff2cc;strokeColor=#d6b656;" vertex="1" parent="1">
          <mxGeometry x="320" y="200" width="166" height="80" as="geometry" />
        </mxCell>
        <mxCell id="Y5ALovDwi28sZ790nxAF-8" value="" style="whiteSpace=wrap;html=1;rounded=1;fillColor=#d5e8d4;strokeColor=#82b366;" vertex="1" parent="1">
          <mxGeometry x="82.5" y="200" width="167.5" height="80" as="geometry" />
        </mxCell>
        <mxCell id="Y5ALovDwi28sZ790nxAF-43" value="" style="edgeStyle=orthogonalEdgeStyle;rounded=0;orthogonalLoop=1;jettySize=auto;html=1;fontSize=18;startArrow=none;" edge="1" parent="1" source="Y5ALovDwi28sZ790nxAF-45" target="Y5ALovDwi28sZ790nxAF-23">
          <mxGeometry relative="1" as="geometry" />
        </mxCell>
        <mxCell id="Y5ALovDwi28sZ790nxAF-44" style="edgeStyle=orthogonalEdgeStyle;rounded=0;orthogonalLoop=1;jettySize=auto;html=1;entryX=0.5;entryY=0;entryDx=0;entryDy=0;fontSize=18;" edge="1" parent="1" source="Y5ALovDwi28sZ790nxAF-10" target="Y5ALovDwi28sZ790nxAF-8">
          <mxGeometry relative="1" as="geometry" />
        </mxCell>
        <mxCell id="Y5ALovDwi28sZ790nxAF-10" value="" style="whiteSpace=wrap;html=1;rounded=1;fillColor=#f8cecc;strokeColor=#b85450;" vertex="1" parent="1">
          <mxGeometry x="75" y="35" width="185" height="85" as="geometry" />
        </mxCell>
        <mxCell id="Y5ALovDwi28sZ790nxAF-68" style="edgeStyle=orthogonalEdgeStyle;rounded=0;orthogonalLoop=1;jettySize=auto;html=1;exitX=0.5;exitY=1;exitDx=0;exitDy=0;fontSize=10;" edge="1" parent="1" source="Y5ALovDwi28sZ790nxAF-12" target="Y5ALovDwi28sZ790nxAF-14">
          <mxGeometry relative="1" as="geometry" />
        </mxCell>
        <mxCell id="Y5ALovDwi28sZ790nxAF-12" value="" style="whiteSpace=wrap;html=1;rounded=1;fillColor=#ffe6cc;strokeColor=#d79b00;" vertex="1" parent="1">
          <mxGeometry x="520" y="200" width="160" height="80" as="geometry" />
        </mxCell>
        <mxCell id="Y5ALovDwi28sZ790nxAF-17" value="" style="edgeStyle=orthogonalEdgeStyle;rounded=0;orthogonalLoop=1;jettySize=auto;html=1;" edge="1" parent="1" source="Y5ALovDwi28sZ790nxAF-14" target="Y5ALovDwi28sZ790nxAF-16">
          <mxGeometry relative="1" as="geometry" />
        </mxCell>
        <mxCell id="Y5ALovDwi28sZ790nxAF-14" value="" style="whiteSpace=wrap;html=1;rounded=1;fillColor=#dae8fc;strokeColor=#6c8ebf;" vertex="1" parent="1">
          <mxGeometry x="570" y="320" width="110" height="80" as="geometry" />
        </mxCell>
        <mxCell id="Y5ALovDwi28sZ790nxAF-72" style="edgeStyle=orthogonalEdgeStyle;rounded=0;orthogonalLoop=1;jettySize=auto;html=1;exitX=0;exitY=0.5;exitDx=0;exitDy=0;entryX=1;entryY=0.5;entryDx=0;entryDy=0;fontSize=10;" edge="1" parent="1" source="Y5ALovDwi28sZ790nxAF-16" target="Y5ALovDwi28sZ790nxAF-57">
          <mxGeometry relative="1" as="geometry" />
        </mxCell>
        <mxCell id="Y5ALovDwi28sZ790nxAF-16" value="" style="whiteSpace=wrap;html=1;rounded=1;fillColor=#d5e8d4;strokeColor=#82b366;" vertex="1" parent="1">
          <mxGeometry x="355" y="320" width="170" height="80" as="geometry" />
        </mxCell>
        <mxCell id="Y5ALovDwi28sZ790nxAF-32" style="edgeStyle=orthogonalEdgeStyle;rounded=0;orthogonalLoop=1;jettySize=auto;html=1;exitX=0.5;exitY=1;exitDx=0;exitDy=0;entryX=0.5;entryY=0;entryDx=0;entryDy=0;fontSize=18;" edge="1" parent="1" source="Y5ALovDwi28sZ790nxAF-23" target="Y5ALovDwi28sZ790nxAF-8">
          <mxGeometry relative="1" as="geometry" />
        </mxCell>
        <mxCell id="Y5ALovDwi28sZ790nxAF-23" value="" style="rounded=1;whiteSpace=wrap;html=1;fontSize=18;fillColor=#f8cecc;strokeColor=#b85450;" vertex="1" parent="1">
          <mxGeometry x="410" y="37.5" width="240" height="80" as="geometry" />
        </mxCell>
        <mxCell id="Y5ALovDwi28sZ790nxAF-35" value="&lt;font style=&quot;font-size: 14px;&quot;&gt;*.map&lt;/font&gt;" style="text;html=1;strokeColor=none;fillColor=none;align=center;verticalAlign=middle;whiteSpace=wrap;rounded=0;fontSize=18;" vertex="1" parent="1">
          <mxGeometry x="180" y="35" width="60" height="30" as="geometry" />
        </mxCell>
        <mxCell id="Y5ALovDwi28sZ790nxAF-36" value="&lt;font style=&quot;font-size: 14px;&quot;&gt;*.ped&lt;/font&gt;" style="text;html=1;strokeColor=none;fillColor=none;align=center;verticalAlign=middle;whiteSpace=wrap;rounded=0;fontSize=18;" vertex="1" parent="1">
          <mxGeometry x="75" y="35" width="60" height="30" as="geometry" />
        </mxCell>
        <mxCell id="Y5ALovDwi28sZ790nxAF-37" value="" style="shape=curlyBracket;whiteSpace=wrap;html=1;rounded=1;flipH=1;fontSize=18;" vertex="1" parent="1">
          <mxGeometry x="710" y="40" width="20" height="120" as="geometry" />
        </mxCell>
        <mxCell id="Y5ALovDwi28sZ790nxAF-39" value="Input Files" style="text;html=1;strokeColor=none;fillColor=none;align=center;verticalAlign=middle;whiteSpace=wrap;rounded=0;fontSize=18;rotation=-90;" vertex="1" parent="1">
          <mxGeometry x="715" y="85" width="100" height="30" as="geometry" />
        </mxCell>
        <mxCell id="Y5ALovDwi28sZ790nxAF-40" value="" style="shape=curlyBracket;whiteSpace=wrap;html=1;rounded=1;flipH=1;fontSize=18;" vertex="1" parent="1">
          <mxGeometry x="710" y="180" width="20" height="340" as="geometry" />
        </mxCell>
        <mxCell id="Y5ALovDwi28sZ790nxAF-41" value="Quality Control" style="text;html=1;strokeColor=none;fillColor=none;align=center;verticalAlign=middle;whiteSpace=wrap;rounded=0;fontSize=18;rotation=-90;" vertex="1" parent="1">
          <mxGeometry x="697" y="280" width="130" height="30" as="geometry" />
        </mxCell>
        <mxCell id="Y5ALovDwi28sZ790nxAF-19" value="&lt;font style=&quot;font-size: 14px;&quot;&gt;*.fam&lt;/font&gt;" style="text;html=1;strokeColor=none;fillColor=none;align=center;verticalAlign=middle;whiteSpace=wrap;rounded=0;fontSize=18;" vertex="1" parent="1">
          <mxGeometry x="410" y="35" width="60" height="30" as="geometry" />
        </mxCell>
        <mxCell id="Y5ALovDwi28sZ790nxAF-20" value="&lt;font style=&quot;font-size: 14px;&quot;&gt;*.bed&lt;/font&gt;" style="text;html=1;strokeColor=none;fillColor=none;align=center;verticalAlign=middle;whiteSpace=wrap;rounded=0;fontSize=18;" vertex="1" parent="1">
          <mxGeometry x="500" y="35" width="60" height="30" as="geometry" />
        </mxCell>
        <mxCell id="Y5ALovDwi28sZ790nxAF-22" value="&lt;font style=&quot;font-size: 14px;&quot;&gt;*.bim&lt;/font&gt;" style="text;html=1;strokeColor=none;fillColor=none;align=center;verticalAlign=middle;whiteSpace=wrap;rounded=0;fontSize=18;" vertex="1" parent="1">
          <mxGeometry x="590" y="35" width="60" height="30" as="geometry" />
        </mxCell>
        <mxCell id="Y5ALovDwi28sZ790nxAF-45" value="Convert to PLINK format" style="text;html=1;strokeColor=none;fillColor=none;align=center;verticalAlign=middle;whiteSpace=wrap;rounded=0;fontSize=14;" vertex="1" parent="1">
          <mxGeometry x="280" y="57.5" width="90" height="40" as="geometry" />
        </mxCell>
        <mxCell id="Y5ALovDwi28sZ790nxAF-46" value="" style="edgeStyle=orthogonalEdgeStyle;rounded=0;orthogonalLoop=1;jettySize=auto;html=1;fontSize=18;endArrow=none;" edge="1" parent="1" source="Y5ALovDwi28sZ790nxAF-10" target="Y5ALovDwi28sZ790nxAF-45">
          <mxGeometry relative="1" as="geometry">
            <mxPoint x="270" y="75" as="sourcePoint" />
            <mxPoint x="400" y="75" as="targetPoint" />
          </mxGeometry>
        </mxCell>
        <mxCell id="Y5ALovDwi28sZ790nxAF-47" value="&lt;div style=&quot;&quot;&gt;&lt;span style=&quot;font-size: 10px;&quot;&gt;information of the individuals and their genotypes&lt;/span&gt;&lt;/div&gt;" style="text;html=1;strokeColor=none;fillColor=none;align=left;verticalAlign=middle;whiteSpace=wrap;rounded=0;fontSize=14;" vertex="1" parent="1">
          <mxGeometry x="75" y="70" width="85" height="30" as="geometry" />
        </mxCell>
        <mxCell id="Y5ALovDwi28sZ790nxAF-48" value="information of the genetic markers" style="text;html=1;strokeColor=none;fillColor=none;align=right;verticalAlign=middle;whiteSpace=wrap;rounded=0;fontSize=10;" vertex="1" parent="1">
          <mxGeometry x="170" y="70" width="70" height="30" as="geometry" />
        </mxCell>
        <mxCell id="Y5ALovDwi28sZ790nxAF-50" value="binary file that contains IDs and genotypes" style="text;html=1;strokeColor=none;fillColor=none;align=center;verticalAlign=middle;whiteSpace=wrap;rounded=0;fontSize=10;" vertex="1" parent="1">
          <mxGeometry x="500" y="70" width="60" height="30" as="geometry" />
        </mxCell>
        <mxCell id="Y5ALovDwi28sZ790nxAF-51" value="information of the individuals" style="text;html=1;strokeColor=none;fillColor=none;align=left;verticalAlign=middle;whiteSpace=wrap;rounded=0;fontSize=10;" vertex="1" parent="1">
          <mxGeometry x="420" y="70" width="60" height="30" as="geometry" />
        </mxCell>
        <mxCell id="Y5ALovDwi28sZ790nxAF-52" value="genetic markers" style="text;html=1;strokeColor=none;fillColor=none;align=center;verticalAlign=middle;whiteSpace=wrap;rounded=0;fontSize=10;" vertex="1" parent="1">
          <mxGeometry x="590" y="62.5" width="60" height="30" as="geometry" />
        </mxCell>
        <mxCell id="Y5ALovDwi28sZ790nxAF-58" style="edgeStyle=orthogonalEdgeStyle;rounded=0;orthogonalLoop=1;jettySize=auto;html=1;exitX=1;exitY=0.5;exitDx=0;exitDy=0;entryX=0;entryY=0.5;entryDx=0;entryDy=0;fontSize=12;" edge="1" parent="1" source="Y5ALovDwi28sZ790nxAF-53" target="Y5ALovDwi28sZ790nxAF-1">
          <mxGeometry relative="1" as="geometry" />
        </mxCell>
        <mxCell id="Y5ALovDwi28sZ790nxAF-53" value="&lt;div style=&quot;&quot;&gt;&lt;div style=&quot;text-align: left;&quot;&gt;&lt;b&gt;&lt;font style=&quot;font-size: 14px;&quot;&gt;Step 1&lt;/font&gt;&lt;/b&gt;&lt;/div&gt;&lt;div style=&quot;text-align: left;&quot;&gt;&amp;nbsp;&lt;/div&gt;&lt;/div&gt;&lt;div style=&quot;text-align: left;&quot;&gt;&lt;font style=&quot;font-size: 12px;&quot;&gt;Filtering sapmles and positions (SNP) by call rate&lt;/font&gt;&lt;/div&gt;" style="text;html=1;strokeColor=none;fillColor=none;align=center;verticalAlign=middle;whiteSpace=wrap;rounded=0;fontSize=10;" vertex="1" parent="1">
          <mxGeometry x="91.25" y="210" width="152.5" height="60" as="geometry" />
        </mxCell>
        <mxCell id="Y5ALovDwi28sZ790nxAF-59" value="" style="edgeStyle=orthogonalEdgeStyle;rounded=0;orthogonalLoop=1;jettySize=auto;html=1;fontSize=12;" edge="1" parent="1" source="Y5ALovDwi28sZ790nxAF-54" target="Y5ALovDwi28sZ790nxAF-12">
          <mxGeometry relative="1" as="geometry">
            <Array as="points">
              <mxPoint x="510" y="240" />
              <mxPoint x="510" y="240" />
            </Array>
          </mxGeometry>
        </mxCell>
        <mxCell id="Y5ALovDwi28sZ790nxAF-54" value="&lt;div style=&quot;&quot;&gt;&lt;div style=&quot;text-align: left;&quot;&gt;&lt;b&gt;&lt;font style=&quot;font-size: 14px;&quot;&gt;Step 2&lt;/font&gt;&lt;/b&gt;&lt;/div&gt;&lt;div style=&quot;text-align: left;&quot;&gt;&amp;nbsp;&lt;/div&gt;&lt;/div&gt;&lt;div style=&quot;text-align: left;&quot;&gt;&lt;font style=&quot;font-size: 12px;&quot;&gt;Filtering samples with sex discrepancy&lt;/font&gt;&lt;/div&gt;" style="text;html=1;strokeColor=none;fillColor=none;align=center;verticalAlign=middle;whiteSpace=wrap;rounded=0;fontSize=10;" vertex="1" parent="1">
          <mxGeometry x="326.75" y="210" width="153.25" height="60" as="geometry" />
        </mxCell>
        <mxCell id="Y5ALovDwi28sZ790nxAF-55" value="&lt;div style=&quot;&quot;&gt;&lt;div style=&quot;text-align: left;&quot;&gt;&lt;b&gt;&lt;font style=&quot;font-size: 14px;&quot;&gt;Step 3&lt;/font&gt;&lt;/b&gt;&lt;/div&gt;&lt;/div&gt;&lt;div style=&quot;text-align: left;&quot;&gt;&lt;font style=&quot;font-size: 10px;&quot;&gt;Excluding samples in which the observed heterozygosity deviated by more than 3 standard deviations from the sample mean&lt;/font&gt;&lt;/div&gt;" style="text;html=1;strokeColor=none;fillColor=none;align=center;verticalAlign=middle;whiteSpace=wrap;rounded=0;fontSize=10;" vertex="1" parent="1">
          <mxGeometry x="527.5" y="210" width="152.5" height="60" as="geometry" />
        </mxCell>
        <mxCell id="Y5ALovDwi28sZ790nxAF-56" value="&lt;div style=&quot;&quot;&gt;&lt;div style=&quot;text-align: left;&quot;&gt;&lt;b&gt;&lt;font style=&quot;font-size: 14px;&quot;&gt;Step 5&lt;/font&gt;&lt;/b&gt;&lt;/div&gt;&lt;div style=&quot;text-align: left;&quot;&gt;&amp;nbsp;&lt;/div&gt;&lt;/div&gt;&lt;div style=&quot;text-align: left;&quot;&gt;&lt;font style=&quot;font-size: 12px;&quot;&gt;Remove positions on sex chromosomes and mitochondria&lt;/font&gt;&lt;/div&gt;" style="text;html=1;strokeColor=none;fillColor=none;align=center;verticalAlign=middle;whiteSpace=wrap;rounded=0;fontSize=10;" vertex="1" parent="1">
          <mxGeometry x="361.75" y="330" width="152.5" height="60" as="geometry" />
        </mxCell>
        <mxCell id="Y5ALovDwi28sZ790nxAF-57" value="&lt;div style=&quot;&quot;&gt;&lt;div style=&quot;text-align: left;&quot;&gt;&lt;b&gt;&lt;font style=&quot;font-size: 14px;&quot;&gt;Step 6&lt;/font&gt;&lt;/b&gt;&lt;/div&gt;&lt;div style=&quot;text-align: left;&quot;&gt;&amp;nbsp;&lt;/div&gt;&lt;/div&gt;&lt;div style=&quot;text-align: left;&quot;&gt;&lt;font style=&quot;font-size: 12px;&quot;&gt;Filtering out of positions based on minor allele frequency&lt;/font&gt;&lt;/div&gt;" style="text;html=1;strokeColor=none;fillColor=none;align=center;verticalAlign=middle;whiteSpace=wrap;rounded=0;fontSize=10;" vertex="1" parent="1">
          <mxGeometry x="132.5" y="330" width="152.5" height="60" as="geometry" />
        </mxCell>
        <mxCell id="Y5ALovDwi28sZ790nxAF-63" value="&lt;div style=&quot;&quot;&gt;&lt;div style=&quot;text-align: left;&quot;&gt;&lt;b&gt;&lt;font style=&quot;font-size: 14px;&quot;&gt;Step 4&lt;/font&gt;&lt;/b&gt;&lt;/div&gt;&lt;div style=&quot;text-align: left;&quot;&gt;&amp;nbsp;&lt;/div&gt;&lt;/div&gt;&lt;div style=&quot;&quot;&gt;&lt;div style=&quot;text-align: left;&quot;&gt;&lt;span style=&quot;font-size: 12px;&quot;&gt;Imputing&lt;/span&gt;&lt;/div&gt;&lt;/div&gt;" style="text;html=1;strokeColor=none;fillColor=none;align=center;verticalAlign=middle;whiteSpace=wrap;rounded=0;fontSize=10;" vertex="1" parent="1">
          <mxGeometry x="590" y="330" width="62.5" height="60" as="geometry" />
        </mxCell>
        <mxCell id="Y5ALovDwi28sZ790nxAF-69" value="&lt;div style=&quot;&quot;&gt;&lt;div style=&quot;text-align: left;&quot;&gt;&lt;div style=&quot;text-align: center;&quot;&gt;&lt;div style=&quot;text-align: left;&quot;&gt;&lt;b&gt;&lt;font style=&quot;font-size: 14px;&quot;&gt;Step 7&lt;/font&gt;&lt;/b&gt;&lt;/div&gt;&lt;div style=&quot;text-align: left;&quot;&gt;&amp;nbsp;&lt;/div&gt;&lt;/div&gt;&lt;div&gt;&lt;font style=&quot;font-size: 12px;&quot;&gt;Filtering of positions with inclination of the Hardy-Weinberg equilibrium&lt;/font&gt;&lt;/div&gt;&lt;/div&gt;&lt;/div&gt;" style="text;html=1;strokeColor=none;fillColor=none;align=center;verticalAlign=middle;whiteSpace=wrap;rounded=0;fontSize=10;" vertex="1" parent="1">
          <mxGeometry x="41.25" y="450" width="152.5" height="60" as="geometry" />
        </mxCell>
        <mxCell id="Y5ALovDwi28sZ790nxAF-73" value="" style="rounded=1;whiteSpace=wrap;html=1;fontSize=10;fillColor=#f5f5f5;fontColor=#333333;strokeColor=#666666;" vertex="1" parent="1">
          <mxGeometry x="274.25" y="440" width="240" height="80" as="geometry" />
        </mxCell>
        <mxCell id="Y5ALovDwi28sZ790nxAF-74" value="&lt;div style=&quot;&quot;&gt;&lt;div style=&quot;text-align: left;&quot;&gt;&lt;div style=&quot;text-align: center;&quot;&gt;&lt;div style=&quot;text-align: left;&quot;&gt;&lt;b&gt;&lt;font style=&quot;font-size: 14px;&quot;&gt;Step 8&lt;/font&gt;&lt;/b&gt;&lt;/div&gt;&lt;div style=&quot;text-align: left;&quot;&gt;&amp;nbsp;&lt;/div&gt;&lt;/div&gt;&lt;div&gt;&lt;font style=&quot;font-size: 12px;&quot;&gt;Identification of close relatives individuals&lt;/font&gt;&lt;/div&gt;&lt;/div&gt;&lt;/div&gt;" style="text;html=1;strokeColor=none;fillColor=none;align=center;verticalAlign=middle;whiteSpace=wrap;rounded=0;fontSize=10;" vertex="1" parent="1">
          <mxGeometry x="284.25" y="450" width="221.25" height="60" as="geometry" />
        </mxCell>
      </root>
    </mxGraphModel>
  </diagram>
</mxfile>
